<?xml version="1.0" encoding="UTF-8" standalone="no"?>
<!-- Created with Inkscape (http://www.inkscape.org/) -->
<svg
   xmlns:dc="http://purl.org/dc/elements/1.1/"
   xmlns:cc="http://web.resource.org/cc/"
   xmlns:rdf="http://www.w3.org/1999/02/22-rdf-syntax-ns#"
   xmlns:svg="http://www.w3.org/2000/svg"
   xmlns="http://www.w3.org/2000/svg"
   xmlns:xlink="http://www.w3.org/1999/xlink"
   xmlns:sodipodi="http://sodipodi.sourceforge.net/DTD/sodipodi-0.dtd"
   xmlns:inkscape="http://www.inkscape.org/namespaces/inkscape"
   id="svg2"
   sodipodi:version="0.32"
   inkscape:version="0.44+devel"
   width="2126"
   height="2126"
   version="1.0"
   sodipodi:docbase="C:\Documents and Settings\Flanker\Desktop"
   sodipodi:docname="Romeo_Logo.svg"
   inkscape:output_extension="org.inkscape.output.svg.inkscape"
   sodipodi:modified="true">
  <metadata
     id="metadata7">
    <rdf:RDF>
      <cc:Work
         rdf:about="">
        <dc:format>image/svg+xml</dc:format>
        <dc:type
           rdf:resource="http://purl.org/dc/dcmitype/StillImage" />
      </cc:Work>
    </rdf:RDF>
  </metadata>
  <defs
     id="defs5">
    <linearGradient
       id="linearGradient5772">
      <stop
         style="stop-color:#157031;stop-opacity:1;"
         offset="0"
         id="stop5774" />
      <stop
         style="stop-color:#0f5324;stop-opacity:1;"
         offset="1"
         id="stop5776" />
    </linearGradient>
    <linearGradient
       id="linearGradient5764">
      <stop
         style="stop-color:#2f7fbe;stop-opacity:1;"
         offset="0"
         id="stop5766" />
      <stop
         style="stop-color:#225d8b;stop-opacity:1;"
         offset="1"
         id="stop5768" />
    </linearGradient>
    <linearGradient
       id="linearGradient5756">
      <stop
         style="stop-color:white;stop-opacity:1;"
         offset="0"
         id="stop5758" />
      <stop
         style="stop-color:#53eeef;stop-opacity:1;"
         offset="1"
         id="stop5760" />
    </linearGradient>
    <linearGradient
       id="linearGradient5765">
      <stop
         style="stop-color:#d50d16;stop-opacity:1;"
         offset="0"
         id="stop5767" />
      <stop
         id="stop5787"
         offset="0.5"
         style="stop-color:#880d16;stop-opacity:1;" />
      <stop
         id="stop5773"
         offset="1"
         style="stop-color:#520d16;stop-opacity:1;" />
    </linearGradient>
    <linearGradient
       id="linearGradient2760">
      <stop
         style="stop-color:#f8ffbf;stop-opacity:1;"
         offset="0"
         id="stop2762" />
      <stop
         id="stop2770"
         offset="0.5089286"
         style="stop-color:#f8e45e;stop-opacity:1;" />
      <stop
         style="stop-color:#f8d35e;stop-opacity:1;"
         offset="0.75"
         id="stop2772" />
      <stop
         style="stop-color:#ee8e0a;stop-opacity:1;"
         offset="1"
         id="stop2764" />
    </linearGradient>
    <linearGradient
       inkscape:collect="always"
       xlink:href="#linearGradient2760"
       id="linearGradient3048"
       gradientUnits="userSpaceOnUse"
       x1="267.88837"
       y1="713.88708"
       x2="1882.2844"
       y2="1400.2815" />
    <linearGradient
       inkscape:collect="always"
       xlink:href="#linearGradient2760"
       id="linearGradient4870"
       x1="2345.6875"
       y1="790.53125"
       x2="4075.2813"
       y2="790.53125"
       gradientUnits="userSpaceOnUse" />
    <linearGradient
       inkscape:collect="always"
       xlink:href="#linearGradient5765"
       id="linearGradient5785"
       x1="2702.8381"
       y1="456.84442"
       x2="3251.5684"
       y2="1521.5221"
       gradientUnits="userSpaceOnUse"
       spreadMethod="pad" />
    <linearGradient
       inkscape:collect="always"
       xlink:href="#linearGradient2760"
       id="linearGradient3692"
       x1="1070.125"
       y1="846.742"
       x2="1408.1875"
       y2="846.742"
       gradientUnits="userSpaceOnUse" />
    <linearGradient
       inkscape:collect="always"
       xlink:href="#linearGradient2760"
       id="linearGradient3694"
       x1="1109.8125"
       y1="1155.3986"
       x2="1659.125"
       y2="1155.3986"
       gradientUnits="userSpaceOnUse" />
    <linearGradient
       inkscape:collect="always"
       xlink:href="#linearGradient2760"
       id="linearGradient3720"
       x1="1234.1489"
       y1="685.99341"
       x2="1449.4771"
       y2="685.99341"
       gradientUnits="userSpaceOnUse"
       gradientTransform="matrix(0.998476,0,0,1.114578,1.382023,-79.145)" />
    <linearGradient
       inkscape:collect="always"
       xlink:href="#linearGradient2760"
       id="linearGradient3724"
       gradientUnits="userSpaceOnUse"
       gradientTransform="matrix(0.998476,0,0,1.114578,1.382023,-119.519)"
       x1="1234.1489"
       y1="685.99341"
       x2="1449.4771"
       y2="685.99341" />
    <linearGradient
       inkscape:collect="always"
       xlink:href="#linearGradient2760"
       id="linearGradient3760"
       gradientUnits="userSpaceOnUse"
       x1="267.88837"
       y1="713.88708"
       x2="1882.2844"
       y2="1400.2815" />
    <linearGradient
       inkscape:collect="always"
       xlink:href="#linearGradient5765"
       id="linearGradient3762"
       gradientUnits="userSpaceOnUse"
       spreadMethod="pad"
       x1="2702.8381"
       y1="456.84442"
       x2="3251.5684"
       y2="1521.5221" />
    <linearGradient
       inkscape:collect="always"
       xlink:href="#linearGradient2760"
       id="linearGradient3764"
       gradientUnits="userSpaceOnUse"
       x1="2345.6875"
       y1="790.53125"
       x2="4075.2813"
       y2="790.53125" />
    <linearGradient
       inkscape:collect="always"
       xlink:href="#linearGradient2760"
       id="linearGradient3767"
       gradientUnits="userSpaceOnUse"
       x1="1070.125"
       y1="846.742"
       x2="1408.1875"
       y2="846.742" />
    <linearGradient
       inkscape:collect="always"
       xlink:href="#linearGradient2760"
       id="linearGradient3770"
       gradientUnits="userSpaceOnUse"
       x1="1109.8125"
       y1="1155.3986"
       x2="1659.125"
       y2="1155.3986" />
    <linearGradient
       inkscape:collect="always"
       xlink:href="#linearGradient2760"
       id="linearGradient3774"
       gradientUnits="userSpaceOnUse"
       x1="2345.6875"
       y1="790.53125"
       x2="4075.2813"
       y2="790.53125"
       gradientTransform="translate(-2145.306,163.4898)" />
    <linearGradient
       inkscape:collect="always"
       xlink:href="#linearGradient5765"
       id="linearGradient3783"
       gradientUnits="userSpaceOnUse"
       spreadMethod="pad"
       x1="2702.8381"
       y1="456.84442"
       x2="3251.5684"
       y2="1521.5221"
       gradientTransform="matrix(1.020714,0,0,1.013431,-2205.865,152.1146)" />
    <linearGradient
       inkscape:collect="always"
       xlink:href="#linearGradient2760"
       id="linearGradient3796"
       gradientUnits="userSpaceOnUse"
       gradientTransform="matrix(0.998476,0,0,1.114578,1.382023,-79.145)"
       x1="1234.1489"
       y1="685.99341"
       x2="1449.4771"
       y2="685.99341" />
    <linearGradient
       inkscape:collect="always"
       xlink:href="#linearGradient2760"
       id="linearGradient3799"
       gradientUnits="userSpaceOnUse"
       gradientTransform="matrix(0.998476,0,0,1.114578,1.382023,-79.145)"
       x1="1234.1489"
       y1="685.99341"
       x2="1449.4771"
       y2="685.99341" />
    <linearGradient
       inkscape:collect="always"
       xlink:href="#linearGradient5756"
       id="linearGradient5762"
       x1="657.14557"
       y1="652.56287"
       x2="1059.5"
       y2="1745.1536"
       gradientUnits="userSpaceOnUse" />
    <linearGradient
       inkscape:collect="always"
       xlink:href="#linearGradient5764"
       id="linearGradient5770"
       x1="1039.5486"
       y1="480.75403"
       x2="1460.6772"
       y2="1687.8281"
       gradientUnits="userSpaceOnUse" />
    <linearGradient
       inkscape:collect="always"
       xlink:href="#linearGradient5772"
       id="linearGradient5778"
       x1="1226.5264"
       y1="822.23273"
       x2="1474.6227"
       y2="1559.9308"
       gradientUnits="userSpaceOnUse" />
    <linearGradient
       inkscape:collect="always"
       xlink:href="#linearGradient2760"
       id="linearGradient5787"
       gradientUnits="userSpaceOnUse"
       gradientTransform="translate(-2145.306,163.4898)"
       x1="2588.9285"
       y1="312.02438"
       x2="3812.1025"
       y2="1356.7644" />
  </defs>
  <sodipodi:namedview
     inkscape:window-height="1003"
     inkscape:window-width="1280"
     inkscape:pageshadow="2"
     inkscape:pageopacity="0.0"
     guidetolerance="10.0"
     gridtolerance="10.0"
     objecttolerance="10.0"
     borderopacity="1.0"
     bordercolor="#666666"
     pagecolor="#ffffff"
     id="base"
     inkscape:zoom="0.2507801"
     inkscape:cx="1254.2764"
     inkscape:cy="908.55069"
     inkscape:window-x="-4"
     inkscape:window-y="-4"
     inkscape:current-layer="svg2" />
  <path
     sodipodi:type="arc"
     style="fill:#1e1d51;fill-opacity:1;fill-rule:evenodd;stroke:none;stroke-width:75;stroke-linecap:round;stroke-linejoin:miter;stroke-miterlimit:4;stroke-dasharray:none;stroke-opacity:0.55617975"
     id="path2778"
     sodipodi:cx="1359.061"
     sodipodi:cy="786.67639"
     sodipodi:rx="555.46686"
     sodipodi:ry="555.46686"
     d="M 1914.5279 786.67639 A 555.46686 555.46686 0 1 1  803.59418,786.67639 A 555.46686 555.46686 0 1 1  1914.5279 786.67639 z"
     transform="matrix(1.619289,0,0,1.619289,-1137.713,-210.8565)" />
  <path
     style="fill:url(#linearGradient5762);fill-opacity:1.0;fill-rule:evenodd;stroke:none;stroke-width:5.86040449;stroke-linecap:round;stroke-linejoin:miter;stroke-miterlimit:4;stroke-dasharray:none;stroke-opacity:1"
     d="M 1059.5 431.6875 C 982.67878 433.13254 908.98202 446.8041 840.46875 470.71875 L 840.46875 964.5 L 1059.5 964.5 L 1059.5 431.6875 z M 661.09375 578.84375 C 546.87253 675.78838 466.32589 809.49033 438.9375 960.96875 L 661.09375 960.96875 L 661.09375 578.84375 z M 832.71875 1139.6875 L 832.71875 1655.9063 C 903.03214 1679.7787 978.66019 1693.4325 1057.5 1694.875 L 1057.5 1139.6875 L 832.71875 1139.6875 z M 438.21875 1141.0938 C 460.9884 1302.4091 543.2426 1445.0968 662.5 1547.0938 L 662.5 1141.0938 L 438.21875 1141.0938 z "
     id="path2887" />
  <path
     style="fill:url(#linearGradient5770);fill-opacity:1.0;fill-rule:evenodd;stroke:none;stroke-width:5.86040449;stroke-linecap:round;stroke-linejoin:miter;stroke-miterlimit:4;stroke-dasharray:none;stroke-opacity:1"
     d="M 1075.4367,438.04678 C 1414.8277,444.6826 1687.9679,722.03832 1687.968,1063.0156 C 1687.968,1403.9925 1414.8276,1681.1953 1075.4367,1687.8281 L 1075.4367,438.04678 z "
     id="path2885" />
  <path
     style="fill:url(#linearGradient3783);fill-opacity:1;fill-rule:evenodd;stroke:none;stroke-width:5.86040449;stroke-linecap:round;stroke-linejoin:miter;stroke-miterlimit:4;stroke-dasharray:none;stroke-opacity:1"
     d="M 824.15041,478.56021 L 824.15041,978.49813 L 1056.076,978.49813 L 1056.076,1126.079 L 824.15041,1126.079 L 824.15041,1648.7557 C 770.53279,1626.6247 720.59617,1597.4605 675.54081,1562.3925 L 675.54081,1126.079 L 433.91847,1126.079 C 431.89786,1105.5636 430.85633,1084.7632 430.85633,1063.7213 C 430.85633,1034.8178 432.81896,1006.3767 436.59785,978.49813 C 436.8862,976.37104 437.18139,974.25277 437.49097,972.13247 C 437.18241,974.25074 436.88579,976.37358 436.59785,978.49813 L 675.54081,978.49813 L 675.54081,564.95516 C 720.59514,529.87436 770.53411,500.70132 824.15041,478.56021 z "
     id="path2883" />
  <path
     style="fill:#fff38d;fill-opacity:1;fill-rule:evenodd;stroke:none;stroke-width:5.86040449;stroke-linecap:round;stroke-linejoin:miter;stroke-miterlimit:4;stroke-dasharray:none;stroke-opacity:1"
     d="M 664.3117,581.60928 C 662.4591,583.14733 660.6154,584.70652 658.7804,586.26553 C 660.6226,584.70185 662.4512,583.1519 664.3117,581.60928 z "
     id="path2881" />
  <path
     style="fill:#fff38d;fill-opacity:1;fill-rule:evenodd;stroke:none;stroke-width:5.86040449;stroke-linecap:round;stroke-linejoin:miter;stroke-miterlimit:4;stroke-dasharray:none;stroke-opacity:1"
     d="M 441.5617,1130.8281 C 441.7634,1132.7089 441.9687,1134.5776 442.1867,1136.4531 C 441.9676,1134.583 441.7641,1132.7031 441.5617,1130.8281 z "
     id="path2877" />
  <path
     style="fill:#fff38d;fill-opacity:1;fill-rule:evenodd;stroke:none;stroke-width:5.86040449;stroke-linecap:round;stroke-linejoin:miter;stroke-miterlimit:4;stroke-dasharray:none;stroke-opacity:1"
     d="M 658.7804,1539.6718 C 660.6154,1541.2309 662.4591,1542.7897 664.3117,1544.3281 C 662.4512,1542.786 660.6226,1541.2349 658.7804,1539.6718 z "
     id="path2869" />
  <rect
     style="fill:#9d0d16;fill-opacity:1;fill-rule:evenodd;stroke:none;stroke-width:25;stroke-linecap:round;stroke-linejoin:round;stroke-miterlimit:4;stroke-dasharray:none;stroke-opacity:0.56179774"
     id="rect3726"
     width="215"
     height="30"
     x="1233.6504"
     y="648.51672" />
  <path
     style="fill:url(#linearGradient5787);fill-opacity:1;fill-rule:evenodd;stroke:none;stroke-width:5.86040449;stroke-linecap:round;stroke-linejoin:miter;stroke-miterlimit:4;stroke-dasharray:none;stroke-opacity:1"
     d="M 1065.625 117.96875 C 738.42043 117.44807 419.83221 286.97809 244.59375 590.5 C -16.226281 1042.2535 138.74651 1620.5862 590.5 1881.4063 C 1042.2535 2142.2263 1620.5863 1987.2536 1881.4063 1535.5 C 2142.2263 1083.7465 1987.2535 505.41378 1535.5 244.59375 C 1387.2684 159.01218 1225.4226 118.22304 1065.625 117.96875 z M 1063 163.53125 C 1559.5026 163.53125 1962.4688 566.49732 1962.4688 1063 C 1962.4688 1559.5027 1559.5027 1962.4688 1063 1962.4688 C 566.49727 1962.4687 163.53125 1559.5027 163.53125 1063 C 163.53125 566.49737 566.49732 163.53125 1063 163.53125 z M 1008.8438 195.03125 L 1008.8438 381.46875 L 1065.6563 381.46875 L 1065.6563 318.65625 L 1111.5313 381.46875 L 1186.2813 392.40625 L 1121.5 308.6875 C 1135.7146 305.73249 1162.375 290.63981 1162.375 258.84375 C 1162.3749 211.24162 1119.5097 196.03125 1092.5938 196.03125 L 1008.8438 195.03125 z M 1080.625 235.90625 C 1096.0768 235.90624 1107.0326 246.37952 1107.5313 257.84375 C 1108.0296 269.30797 1100.099 281.75 1082.625 281.75 L 1064.6563 281.75 L 1063.6875 236.90625 L 1080.625 235.90625 z M 1348.4375 246.5 C 1347.4296 246.49383 1346.4086 246.51084 1345.4063 246.53125 C 1296.3932 247.52907 1254.9506 277.24688 1245.0313 325.78125 C 1235.1517 374.11952 1279.054 431.31982 1332.7188 443.5 C 1390.9432 456.71519 1445.2816 429.06863 1457.5313 366.3125 C 1468.0204 312.57349 1428.524 259.80829 1369.875 248.625 C 1362.6585 247.24892 1355.4929 246.54311 1348.4375 246.5 z M 660.9375 295.71875 L 610.09375 322.625 L 634 532.96875 L 687.84375 493.09375 L 680.875 461.21875 L 739.6875 426.3125 L 766.59375 446.25 L 828.40625 421.34375 L 660.9375 295.71875 z M 1349.75 298.03125 C 1353.2058 298.04082 1356.7127 298.35676 1360.25 299.03125 C 1388.5483 304.42719 1406.5108 328.89294 1401.5625 354.84375 C 1396.6142 380.79455 1370.6106 398.45843 1342.3125 393.0625 C 1314.0145 387.66657 1300.0516 360.26331 1305 334.3125 C 1309.3297 311.60554 1325.5602 297.96428 1349.75 298.03125 z M 662.9375 362.5 L 705.78125 395.40625 L 674.875 413.34375 L 662.9375 362.5 z M 1610.9688 389.4375 L 1451.4688 500.09375 L 1498.3125 536.96875 L 1575.0938 477.15625 L 1536.1875 573.84375 L 1556.125 592.78125 L 1653.8438 552.90625 L 1595.0313 632.65625 L 1630.9063 683.5 L 1743.5625 522 L 1707.6563 479.15625 L 1615.9375 516.03125 L 1652.8438 423.3125 L 1610.9688 389.4375 z M 1063 413 C 704.33673 413 412.96855 704.3677 412.96875 1063.0313 C 412.96864 1421.6943 704.3366 1713.031 1063 1713.0313 C 1421.6634 1713.0312 1713.0314 1421.6944 1713.0313 1063.0313 C 1713.0311 704.36775 1421.6633 412.99991 1063 413 z M 467.53125 434.28125 L 389.78125 524 L 525.34375 644.625 L 563.25 600.78125 L 511.40625 554.90625 L 549.28125 514.03125 L 516.375 484.125 L 478.5 526 L 459.5625 508.0625 L 500.4375 463.1875 L 467.53125 434.28125 z M 1050.4375 438.0625 L 1050.4375 953.9375 L 848.21875 953.9375 L 848.21875 475.84375 C 911.47517 452.68845 979.5105 439.46166 1050.4375 438.0625 z M 1075.4375 438.0625 C 1313.4622 442.71639 1518.8908 580.5349 1620.375 780.0625 C 1619.0599 778.31075 1617.7336 776.59376 1616.375 774.90625 C 1591.5089 744.01943 1560.1838 723.53351 1533.5 706.375 C 1531.3778 705.01553 1528.8942 704.32927 1526.375 704.40625 C 1522.4849 704.51867 1518.869 706.43636 1516.5938 709.59375 C 1510.3832 718.19299 1498.66 725.34377 1483.375 725.34375 L 1368.2188 725.34375 C 1362.4401 725.34375 1356.9526 726.91792 1352.2188 730.34375 C 1347.4846 733.76958 1343.2813 739.9 1343.2813 747.15625 L 1343.2813 760.28125 C 1343.2234 760.35707 1343.1183 760.55909 1342.625 760.9375 C 1341.4974 761.80243 1339.2836 762.71875 1336.8125 762.71875 L 1237.5938 762.71875 L 1237.6875 754.4375 L 1237.6875 754.34375 L 1237.6875 754.28125 C 1237.6875 739.17512 1229.9844 725.45214 1218.0938 716.78125 L 1217.9063 716.625 L 1217.75 716.53125 L 1174.375 687.125 L 1174.3125 687.0625 L 1174.25 687.03125 C 1167.3444 682.47265 1159.6269 680.31205 1152.3438 680.46875 C 1149.9159 680.52098 1147.5376 680.84591 1145.25 681.40625 C 1136.0997 683.6476 1128.6539 689.4279 1123.8438 696.8125 C 1114.2233 711.5817 1116.4322 734.92643 1134.9375 748.15625 L 1155.2813 763.71875 L 1155.4375 763.84375 L 1155.5938 763.9375 C 1159.8743 767.00022 1162.25 770.69937 1162.25 771.71875 L 1161.75 804.6875 L 1161.75 804.78125 L 1161.75 804.875 C 1161.75 805.27656 1161.69 805.37589 1161.6563 805.53125 C 1161.0858 805.52841 1159.992 805.40149 1157.7188 804.65625 C 1152.9078 803.07907 1149.2564 801.04599 1143.5938 798.90625 C 1137.9309 796.76651 1130.6491 795.0625 1121.2813 795.0625 C 1104.7887 795.06251 1091.2377 802.50597 1082.75 812.40625 C 1079.7761 815.8751 1077.3524 819.59078 1075.4375 823.4375 L 1075.4375 438.0625 z M 823.21875 485.625 L 823.21875 978.9375 L 1050.4375 978.9375 L 1050.4375 1124.5625 L 823.21875 1124.5625 L 823.21875 1640.3125 C 770.68917 1618.4749 721.766 1589.697 677.625 1555.0938 L 677.625 1124.5625 L 440.90625 1124.5625 C 438.92654 1104.3191 437.90625 1083.7942 437.90625 1063.0313 C 437.90614 1034.5106 439.82895 1006.4466 443.53125 978.9375 L 677.625 978.9375 L 677.625 570.875 C 721.76503 536.2591 770.69045 507.47269 823.21875 485.625 z M 1246.9375 581.71875 C 1236.7254 581.71875 1228.4375 590.00675 1228.4375 600.21875 C 1228.4375 610.43075 1236.7255 618.71876 1246.9375 618.71875 C 1257.1495 618.71875 1265.4374 610.43075 1265.4375 600.21875 C 1265.4375 590.00675 1257.1495 581.71875 1246.9375 581.71875 z M 1294.0625 581.71875 C 1283.8504 581.71875 1275.5624 590.00675 1275.5625 600.21875 C 1275.5625 610.43075 1283.8504 618.71876 1294.0625 618.71875 C 1304.2745 618.71875 1312.5624 610.43075 1312.5625 600.21875 C 1312.5625 590.00675 1304.2744 581.71875 1294.0625 581.71875 z M 1341.1563 581.71875 C 1330.9443 581.71875 1322.6563 590.00675 1322.6563 600.21875 C 1322.6563 610.43075 1330.9443 618.71876 1341.1563 618.71875 C 1351.3683 618.71875 1359.6563 610.43075 1359.6563 600.21875 C 1359.6563 590.00675 1351.3683 581.71875 1341.1563 581.71875 z M 1388.25 581.71875 C 1378.0379 581.71875 1369.75 590.00675 1369.75 600.21875 C 1369.75 610.43075 1378.038 618.71876 1388.25 618.71875 C 1398.462 618.71875 1406.75 610.43075 1406.75 600.21875 C 1406.75 590.00675 1398.462 581.71875 1388.25 581.71875 z M 1435.375 581.71875 C 1425.1629 581.71875 1416.8749 590.00675 1416.875 600.21875 C 1416.875 610.43075 1425.1629 618.71876 1435.375 618.71875 C 1445.587 618.71875 1453.875 610.43075 1453.875 600.21875 C 1453.875 590.00675 1445.587 581.71875 1435.375 581.71875 z M 652.625 591.5625 L 652.625 953.9375 L 447.40625 953.9375 C 472.70864 810.2834 547.1028 683.49961 652.625 591.5625 z M 1233.6563 630.0625 L 1233.6563 660.0625 L 1448.6563 660.0625 L 1448.6563 630.0625 L 1233.6563 630.0625 z M 1233.6563 670.4375 L 1233.6563 700.4375 L 1448.6563 700.4375 L 1448.6563 670.4375 L 1233.6563 670.4375 z M 1832.2813 670.5625 L 1662.8125 739.34375 L 1710.6563 851 L 1755.5 832.0625 L 1730.5938 775.21875 L 1751.5313 765.25 L 1775.4688 820.09375 L 1816.3125 803.125 L 1793.4063 750.3125 L 1813.3438 741.34375 L 1837.25 798.15625 L 1879.125 781.21875 L 1832.2813 670.5625 z M 284.09375 691.5 L 260.1875 744.3125 L 425.65625 821.09375 L 478.5 713.40625 L 437.625 692.46875 L 405.71875 748.3125 L 284.09375 691.5 z M 1153.0625 705.40625 C 1155.0343 705.29185 1157.3357 705.80701 1160.4688 707.875 L 1203.7188 737.21875 C 1209.1088 741.1492 1212.6875 748.41763 1212.6875 754.28125 L 1212.1875 794.8125 L 1212.1875 794.875 L 1212.1875 794.96875 C 1212.1875 810.9314 1220.261 824.53386 1230.6875 834.03125 C 1236.8349 839.63087 1243.8742 844.04953 1251.4063 846.75 C 1243.8745 849.45047 1236.8349 853.86913 1230.6875 859.46875 C 1220.261 868.96614 1212.1875 882.5686 1212.1875 898.53125 L 1212.1875 898.625 L 1212.1875 898.6875 L 1212.6875 939.375 C 1212.6875 945.23857 1208.7335 952.6008 1203.3438 956.53125 L 1160.3438 985.6875 C 1156.1668 988.44482 1153.6083 988.40548 1151.1875 987.8125 C 1148.7667 987.21952 1146.3895 985.50029 1144.7813 983.03125 C 1141.5646 978.09316 1140.1642 972.33943 1149.4688 965.6875 L 1149.625 965.5625 L 1149.7813 965.4375 L 1170.4688 949.65625 C 1177.4653 944.65032 1187.25 936.23771 1187.25 921.78125 L 1187.25 921.6875 L 1187.25 921.59375 L 1186.75 888.4375 C 1186.75 881.36376 1184.2087 873.37787 1177.0625 867.96875 C 1169.9163 862.55963 1159.7067 861.89113 1149.9375 865.09375 C 1142.9612 867.38078 1138.4027 869.83854 1134.75 871.21875 C 1131.0973 872.59896 1128.0037 873.4375 1121.2813 873.4375 C 1111.8604 873.4375 1106.0761 869.8953 1101.7188 864.8125 C 1097.3612 859.7297 1095.125 852.65004 1095.125 848 L 1095.125 845.5 C 1095.125 840.84996 1097.3612 833.7703 1101.7188 828.6875 C 1106.0763 823.6047 1111.8603 820.06251 1121.2813 820.0625 C 1128.0036 820.0625 1131.0973 820.90104 1134.75 822.28125 C 1138.4027 823.66146 1142.9612 826.11924 1149.9375 828.40625 C 1159.7067 831.60887 1169.9163 830.94038 1177.0625 825.53125 C 1184.2087 820.12212 1186.75 811.94874 1186.75 804.875 L 1187.25 771.90625 L 1187.25 771.8125 L 1187.25 771.71875 C 1187.25 757.26229 1177.1527 748.63094 1170.1563 743.625 L 1149.7813 728.0625 L 1149.625 727.9375 L 1149.4688 727.8125 C 1140.1643 721.16057 1141.5644 715.40683 1144.7813 710.46875 C 1146.3896 707.99971 1148.7667 706.28047 1151.1875 705.6875 C 1151.7927 705.53926 1152.4052 705.44438 1153.0625 705.40625 z M 1528.75 733.1875 C 1552.677 748.82561 1577.4934 766.48056 1596.9063 790.59375 C 1618.696 817.65933 1634.125 852.47985 1634.125 903.8125 C 1634.125 1000.2547 1544.0623 1077.7186 1457.4375 1077.7188 L 1248.0938 1077.7188 C 1242.144 1077.7187 1236.0602 1080.4436 1232.375 1084.6563 C 1228.6898 1088.8688 1227.2106 1093.9522 1227.25 1098.8125 C 1227.2894 1103.6728 1228.8553 1108.6404 1232.5 1112.7813 C 1236.1447 1116.922 1242.1347 1119.6875 1248.0938 1119.6875 L 1452.4688 1119.6875 C 1525.9481 1119.6875 1565.125 1166.9802 1565.125 1222.8125 C 1565.125 1277.2227 1524.4319 1328.375 1452.9688 1328.375 L 1242.375 1328.375 C 1237.2713 1328.375 1231.8474 1330.6882 1228.5 1334.4063 C 1225.1526 1338.1242 1223.7546 1342.6458 1223.7813 1346.9688 C 1223.8076 1351.2916 1225.2161 1355.7407 1228.5313 1359.4063 C 1231.8463 1363.0717 1237.2525 1365.4063 1242.375 1365.4063 L 1399.125 1365.4063 C 1432.8636 1365.4063 1461.5625 1398.2844 1461.5625 1429.6875 C 1461.5625 1445.6112 1457.0364 1460.3119 1447.0313 1471 C 1437.0261 1481.6881 1421.0408 1489.4375 1394.1563 1489.4375 L 1300.1563 1489.4375 C 1296.4099 1489.4375 1292.4691 1490.2569 1288.8438 1492.875 C 1285.2182 1495.4931 1282.2528 1500.4938 1282.4063 1505.6875 C 1282.5597 1510.8812 1285.5509 1515.3346 1289.0313 1517.8125 C 1292.5114 1520.2904 1296.3967 1521.1875 1300.1563 1521.1875 L 1362.5 1521.1875 C 1371.2946 1521.1875 1377.799 1525.0339 1382.9375 1531.2813 C 1388.076 1537.5286 1391.0625 1546.2833 1391.0625 1553.2813 C 1391.0625 1561.9953 1387.843 1570.0498 1382.1563 1575.0938 C 1378.4676 1578.3652 1373.3682 1580.636 1366.375 1581.1875 C 1366.7178 1577.5855 1366.7779 1573.5066 1364.375 1568.625 C 1361.5237 1562.8324 1353.5722 1558.2188 1346.8125 1558.2188 L 1309.4063 1558.2188 C 1296.3778 1558.2188 1281.9998 1553.306 1271.375 1544.0313 C 1260.7502 1534.7565 1253.4688 1521.6121 1253.4688 1502.6875 C 1253.4688 1485.2863 1260.7425 1472.8795 1271.0625 1463.9688 C 1281.3825 1455.0578 1295.09 1450.4063 1305.1875 1450.4063 L 1397.125 1450.4063 C 1401.2757 1450.4062 1405.3201 1449.6903 1409.1875 1447.3438 C 1413.0549 1444.9972 1417.0371 1440.0544 1417.0313 1433.9063 C 1417.0254 1427.7581 1413.0196 1422.8116 1409.1563 1420.4688 C 1405.2929 1418.1255 1401.2744 1417.4375 1397.125 1417.4375 L 1253.0938 1417.4375 C 1197.6757 1417.4375 1166.8125 1378.2204 1166.8125 1335.9375 C 1166.8125 1298.2149 1199.1206 1253.5 1248.0938 1253.5 L 1462.4375 1253.5 C 1468.2721 1253.5 1474.2751 1250.7775 1477.8438 1246.625 C 1481.4123 1242.4725 1482.815 1237.5302 1482.7813 1232.8125 C 1482.7474 1228.0948 1481.2826 1223.2442 1477.75 1219.1563 C 1474.2174 1215.0683 1468.2855 1212.3125 1462.4375 1212.3125 L 1244.125 1212.3125 C 1183.0946 1212.3125 1134.8125 1167.0572 1134.8125 1098.7188 C 1134.8125 1041.6344 1181.5208 983.09375 1250.5938 983.09375 L 1448.4688 983.09375 C 1459.2581 983.09375 1468.9397 978.23958 1474.875 971.15625 C 1480.8103 964.07292 1483.4548 955.34427 1483.5 946.75 C 1483.5452 938.15573 1480.9824 929.3508 1475.0313 922.21875 C 1469.0801 915.0867 1459.3281 910.25 1448.4688 910.25 L 1237.3438 910.25 L 1237.1875 898.40625 C 1237.1875 891.09606 1241.1593 883.74165 1247.5313 877.9375 C 1253.9032 872.13335 1262.4745 868.8125 1267.7188 868.8125 L 1386.0313 868.8125 C 1390.6085 868.8125 1395.1405 867.75482 1399.5938 864.6875 C 1404.047 861.62018 1408.1875 855.00728 1408.1875 846.75 C 1408.1875 838.24382 1405.6558 833.94293 1399.5938 828.8125 C 1395.1405 825.74516 1390.6084 824.6875 1386.0313 824.6875 L 1267.7188 824.6875 C 1262.4747 824.6875 1253.903 821.36666 1247.5313 815.5625 C 1241.1593 809.75834 1237.1875 802.27894 1237.1875 794.96875 L 1237.2813 787.71875 L 1381.6875 787.71875 C 1389.681 787.71876 1396.9747 785.15582 1402.7188 780.75 C 1408.4628 776.34418 1413.1562 769.58543 1413.1563 761.0625 L 1413.1563 750.34375 L 1483.375 750.34375 C 1501.5913 750.34377 1517.4188 743.55553 1528.75 733.1875 z M 1656.1563 865.625 C 1676.7963 927.67753 1687.9687 994.05808 1687.9688 1063.0313 C 1687.9687 1281.3636 1576.0052 1473.5341 1406.3438 1585.2813 C 1412.9675 1575.8589 1416.0625 1564.4976 1416.0625 1553.2813 C 1416.0625 1539.9179 1411.2651 1526.3666 1402.25 1515.4063 C 1401.893 1514.9722 1401.4662 1514.5815 1401.0938 1514.1563 C 1429.5302 1512.7831 1451.1771 1503.1603 1465.2813 1488.0938 C 1480.5257 1471.8087 1486.5625 1450.4075 1486.5625 1429.6875 C 1486.5625 1399.0763 1469.4255 1369.6206 1443.4688 1353.375 L 1452.9688 1353.375 C 1536.7194 1353.375 1590.125 1290.1078 1590.125 1222.8125 C 1590.125 1165.7563 1553.0124 1114.6401 1491.2813 1099.4063 C 1579.9135 1082.7563 1659.125 1003.0004 1659.125 903.8125 C 1659.125 890.23497 1658.0712 877.53404 1656.1563 865.625 z M 1075.4375 870.0625 C 1077.3524 873.90922 1079.7761 877.6249 1082.75 881.09375 C 1091.2377 890.99403 1104.7887 898.43751 1121.2813 898.4375 C 1130.649 898.4375 1137.9309 896.73349 1143.5938 894.59375 C 1149.2566 892.45401 1152.9075 890.42094 1157.7188 888.84375 C 1159.992 888.09851 1161.0857 887.97159 1161.6563 887.96875 C 1161.6898 888.12592 1161.75 888.23621 1161.75 888.625 L 1161.75 888.71875 L 1161.75 888.8125 L 1162.25 921.96875 C 1162.25 922.98813 1159.8742 926.49982 1155.5938 929.5625 L 1155.4375 929.65625 L 1155.2813 929.78125 L 1134.625 945.59375 C 1116.1197 958.82357 1114.2233 981.91829 1123.8438 996.6875 C 1127.9365 1002.9706 1133.9461 1008.075 1141.2813 1010.8438 C 1121.2583 1035.9133 1109.8125 1067.2352 1109.8125 1098.7188 C 1109.8125 1168.1577 1154.8422 1220.7967 1214.5625 1234 C 1169.8337 1249.284 1141.8125 1293.9646 1141.8125 1335.9375 C 1141.8125 1390.9706 1185.3991 1442.4375 1253.0938 1442.4375 L 1258 1442.4375 C 1256.9026 1443.2936 1255.7834 1444.1118 1254.7188 1445.0313 C 1239.7195 1457.9826 1228.4688 1477.9556 1228.4688 1502.6875 C 1228.4688 1528.3938 1239.3384 1549.2853 1254.9063 1562.875 C 1270.4741 1576.4647 1290.305 1583.2188 1309.4063 1583.2188 L 1340.7188 1583.2188 C 1340.0727 1585.5015 1339.3438 1587.625 1339.3438 1587.625 C 1337.8108 1591.096 1337.9373 1595.0708 1339.6875 1598.4375 C 1341.4377 1601.8042 1344.622 1604.1983 1348.3438 1604.9375 C 1357.2914 1606.7096 1365.7461 1606.831 1373.4063 1605.5313 C 1285.3137 1656.0407 1183.7498 1685.727 1075.4375 1687.8438 L 1075.4375 870.0625 z M 401.75 891.84375 L 207.34375 955.65625 L 200.375 1013.4688 L 384.8125 1113.1563 L 383.8125 1046.375 L 355.9375 1033.4688 L 360.125 964.8125 L 392.78125 956.65625 L 401.75 891.84375 z M 1831.2813 897.84375 C 1766.2113 897.84375 1733.5938 951.16644 1733.5938 1004.5 C 1733.5936 1057.8336 1772.1818 1111.1875 1831.2813 1111.1875 C 1890.3553 1111.1876 1929.9687 1062.818 1929.9688 1004.5 C 1929.9686 947.17886 1895.3542 897.84375 1831.2813 897.84375 z M 1237.625 935.25 L 1448.4688 935.25 C 1452.7394 935.25 1454.3085 936.41005 1455.8438 938.25 C 1457.379 940.08995 1458.5177 943.2566 1458.5 946.625 C 1458.4823 949.9934 1457.3013 953.20507 1455.7188 955.09375 C 1454.1362 956.98243 1452.5577 958.09375 1448.4688 958.09375 L 1250.5938 958.09375 C 1244.568 958.09375 1238.6832 958.47915 1232.9375 959.1875 C 1235.9702 953.08414 1237.6875 946.31184 1237.6875 939.21875 L 1237.6875 939.15625 L 1237.6875 939.0625 L 1237.625 935.25 z M 1832.5313 955.65625 C 1861.2125 955.65624 1877.9375 982.43939 1877.9375 1004.5 C 1877.9375 1026.0623 1860.5946 1053.3438 1832.5313 1053.3438 C 1804.4558 1053.3437 1788.125 1029.6715 1788.125 1004.5 C 1788.125 979.3285 1803.8499 955.65625 1832.5313 955.65625 z M 316.375 975.75 L 314 1014 L 261.1875 989.53125 L 316.375 975.75 z M 443.84375 1149.5625 L 652.625 1149.5625 L 652.625 1534.4063 C 541.61343 1437.722 465.03895 1302.4753 443.84375 1149.5625 z M 848.21875 1149.5625 L 1050.4375 1149.5625 L 1050.4375 1687.8438 C 979.50963 1686.4451 911.47595 1673.2074 848.21875 1650.0625 L 848.21875 1149.5625 z "
     id="path2780" />
  <path
     style="fill:#9d0d16;fill-opacity:1;fill-rule:evenodd;stroke:none;stroke-width:5.86040449;stroke-linecap:round;stroke-linejoin:miter;stroke-miterlimit:4;stroke-dasharray:none;stroke-opacity:1"
     d="M 1153.0625,705.40625 C 1155.0343,705.29185 1157.3357,705.80701 1160.4688,707.875 L 1203.7188,737.21875 C 1209.1088,741.1492 1212.6875,748.41763 1212.6875,754.28125 L 1212.1875,794.8125 L 1212.1875,794.875 L 1212.1875,794.96875 C 1212.1875,810.9314 1220.261,824.53386 1230.6875,834.03125 C 1236.8349,839.63087 1243.8742,844.04953 1251.4063,846.75 C 1243.8745,849.45047 1236.8349,853.86913 1230.6875,859.46875 C 1220.261,868.96614 1212.1875,882.5686 1212.1875,898.53125 L 1212.1875,898.625 L 1212.1875,898.6875 L 1212.6875,939.375 C 1212.6875,945.23857 1208.7335,952.6008 1203.3438,956.53125 L 1160.3438,985.6875 C 1156.1668,988.44482 1153.6083,988.40548 1151.1875,987.8125 C 1148.7667,987.21952 1146.3895,985.50029 1144.7813,983.03125 C 1141.5646,978.09316 1140.1642,972.33943 1149.4688,965.6875 L 1149.625,965.5625 L 1149.7813,965.4375 L 1170.4688,949.65625 C 1177.4653,944.65032 1187.25,936.23771 1187.25,921.78125 L 1187.25,921.6875 L 1187.25,921.59375 L 1186.75,888.4375 C 1186.75,881.36376 1184.2087,873.37787 1177.0625,867.96875 C 1169.9163,862.55963 1159.7067,861.89113 1149.9375,865.09375 C 1142.9612,867.38078 1138.4027,869.83854 1134.75,871.21875 C 1131.0973,872.59896 1128.0037,873.4375 1121.2813,873.4375 C 1111.8604,873.4375 1106.0761,869.8953 1101.7188,864.8125 C 1097.3612,859.7297 1095.125,852.65004 1095.125,848 L 1095.125,845.5 C 1095.125,840.84996 1097.3612,833.7703 1101.7188,828.6875 C 1106.0763,823.6047 1111.8603,820.06251 1121.2813,820.0625 C 1128.0036,820.0625 1131.0973,820.90104 1134.75,822.28125 C 1138.4027,823.66146 1142.9612,826.11924 1149.9375,828.40625 C 1159.7067,831.60887 1169.9163,830.94038 1177.0625,825.53125 C 1184.2087,820.12212 1186.75,811.94874 1186.75,804.875 L 1187.25,771.90625 L 1187.25,771.8125 L 1187.25,771.71875 C 1187.25,757.26229 1177.1527,748.63094 1170.1563,743.625 L 1149.7813,728.0625 L 1149.625,727.9375 L 1149.4688,727.8125 C 1140.1643,721.16057 1141.5644,715.40683 1144.7813,710.46875 C 1146.3896,707.99971 1148.7667,706.28047 1151.1875,705.6875 C 1151.7927,705.53926 1152.4052,705.44438 1153.0625,705.40625 z "
     id="path3826" />
  <path
     style="fill:url(#linearGradient5778);fill-opacity:1.0;fill-rule:evenodd;stroke:none;stroke-width:5.86040449;stroke-linecap:round;stroke-linejoin:miter;stroke-miterlimit:4;stroke-dasharray:none;stroke-opacity:1"
     d="M 1528.75,733.1875 C 1552.677,748.82561 1577.4934,766.48056 1596.9063,790.59375 C 1618.696,817.65933 1634.125,852.47985 1634.125,903.8125 C 1634.125,1000.2547 1544.0623,1077.7186 1457.4375,1077.7188 L 1248.0938,1077.7188 C 1242.144,1077.7187 1236.0602,1080.4436 1232.375,1084.6563 C 1228.6898,1088.8688 1227.2106,1093.9522 1227.25,1098.8125 C 1227.2894,1103.6728 1228.8553,1108.6404 1232.5,1112.7813 C 1236.1447,1116.922 1242.1347,1119.6875 1248.0938,1119.6875 L 1452.4688,1119.6875 C 1525.9481,1119.6875 1565.125,1166.9802 1565.125,1222.8125 C 1565.125,1277.2227 1524.4319,1328.375 1452.9688,1328.375 L 1242.375,1328.375 C 1237.2713,1328.375 1231.8474,1330.6882 1228.5,1334.4063 C 1225.1526,1338.1242 1223.7546,1342.6458 1223.7813,1346.9688 C 1223.8076,1351.2916 1225.2161,1355.7407 1228.5313,1359.4063 C 1231.8463,1363.0717 1237.2525,1365.4063 1242.375,1365.4063 L 1399.125,1365.4063 C 1432.8636,1365.4063 1461.5625,1398.2844 1461.5625,1429.6875 C 1461.5625,1445.6112 1457.0364,1460.3119 1447.0313,1471 C 1437.0261,1481.6881 1421.0409,1489.4375 1394.1563,1489.4375 L 1300.1563,1489.4375 C 1296.4099,1489.4375 1292.4691,1490.2569 1288.8438,1492.875 C 1285.2182,1495.4931 1282.2528,1500.4938 1282.4063,1505.6875 C 1282.5597,1510.8812 1285.5509,1515.3346 1289.0313,1517.8125 C 1292.5114,1520.2904 1296.3967,1521.1875 1300.1563,1521.1875 L 1362.5,1521.1875 C 1371.2946,1521.1875 1377.799,1525.0339 1382.9375,1531.2813 C 1388.076,1537.5286 1391.0625,1546.2833 1391.0625,1553.2813 C 1391.0625,1561.9953 1387.843,1570.0499 1382.1563,1575.0938 C 1378.4676,1578.3652 1373.3682,1580.636 1366.375,1581.1875 C 1366.7178,1577.5855 1366.7779,1573.5066 1364.375,1568.625 C 1361.5237,1562.8324 1353.5722,1558.2188 1346.8125,1558.2188 L 1309.4063,1558.2188 C 1296.3778,1558.2188 1281.9998,1553.306 1271.375,1544.0313 C 1260.7502,1534.7565 1253.4688,1521.6121 1253.4688,1502.6875 C 1253.4688,1485.2863 1260.7425,1472.8795 1271.0625,1463.9688 C 1281.3825,1455.0578 1295.09,1450.4063 1305.1875,1450.4063 L 1397.125,1450.4063 C 1401.2757,1450.4062 1405.3201,1449.6903 1409.1875,1447.3438 C 1413.0549,1444.9972 1417.0371,1440.0544 1417.0313,1433.9063 C 1417.0254,1427.7581 1413.0196,1422.8117 1409.1563,1420.4688 C 1405.2929,1418.1255 1401.2744,1417.4375 1397.125,1417.4375 L 1253.0938,1417.4375 C 1197.6757,1417.4375 1166.8125,1378.2204 1166.8125,1335.9375 C 1166.8125,1298.2149 1199.1206,1253.5 1248.0938,1253.5 L 1462.4375,1253.5 C 1468.2721,1253.5 1474.2751,1250.7775 1477.8438,1246.625 C 1481.4123,1242.4725 1482.815,1237.5302 1482.7813,1232.8125 C 1482.7474,1228.0948 1481.2826,1223.2442 1477.75,1219.1563 C 1474.2174,1215.0683 1468.2855,1212.3125 1462.4375,1212.3125 L 1244.125,1212.3125 C 1183.0946,1212.3125 1134.8125,1167.0572 1134.8125,1098.7188 C 1134.8125,1041.6344 1181.5208,983.09375 1250.5938,983.09375 L 1448.4688,983.09375 C 1459.2581,983.09375 1468.9397,978.23958 1474.875,971.15625 C 1480.8103,964.07292 1483.4548,955.34427 1483.5,946.75 C 1483.5452,938.15573 1480.9824,929.3508 1475.0313,922.21875 C 1469.0801,915.0867 1459.3281,910.25 1448.4688,910.25 L 1237.3438,910.25 L 1237.1875,898.40625 C 1237.1875,891.09606 1241.1593,883.74165 1247.5313,877.9375 C 1253.9032,872.13335 1262.4745,868.8125 1267.7188,868.8125 L 1386.0313,868.8125 C 1390.6085,868.8125 1395.1405,867.75482 1399.5938,864.6875 C 1404.047,861.62018 1408.1875,855.00728 1408.1875,846.75 C 1408.1875,838.24382 1405.6558,833.94293 1399.5938,828.8125 C 1395.1405,825.74516 1390.6084,824.6875 1386.0313,824.6875 L 1267.7188,824.6875 C 1262.4747,824.6875 1253.903,821.36666 1247.5313,815.5625 C 1241.1593,809.75834 1237.1875,802.27894 1237.1875,794.96875 L 1237.2813,787.71875 L 1381.6875,787.71875 C 1389.681,787.71876 1396.9747,785.15582 1402.7188,780.75 C 1408.4628,776.34418 1413.1562,769.58543 1413.1563,761.0625 L 1413.1563,750.34375 L 1483.375,750.34375 C 1501.5913,750.34377 1517.4188,743.55553 1528.75,733.1875 z "
     id="path3824" />
</svg>
